<?xml version="1.0" encoding="UTF-8" standalone="no"?>
<!DOCTYPE svg PUBLIC "-//W3C//DTD SVG 1.1//EN" "http://www.w3.org/Graphics/SVG/1.1/DTD/svg11.dtd">
<svg width="100%" height="100%" viewBox="0 0 2400 2400" version="1.1" xmlns="http://www.w3.org/2000/svg" xmlns:xlink="http://www.w3.org/1999/xlink" xml:space="preserve" xmlns:serif="http://www.serif.com/" style="fill-rule:evenodd;clip-rule:evenodd;stroke-linecap:round;stroke-linejoin:round;stroke-miterlimit:1.5;">
    <g transform="matrix(1,0,0,1,-5600,0)">
        <g id="DAF-Logo-color-2" serif:id="DAF Logo color 2" transform="matrix(1,0,0,1,-2208.33,0)">
            <rect x="7808.33" y="0" width="2400" height="2400" style="fill:none;"/>
            <g id="Tracks-1" serif:id="Tracks 1" transform="matrix(1,0,0,1,7808.33,0)">
                <g id="Track-1.1" serif:id="Track 1.1" transform="matrix(1,0,0,1,-2608.33,0)">
                    <path d="M4783.33,2175C4617.09,1883.52 4221.27,1741.27 3811.04,1720.81" style="fill:none;stroke:rgb(23,122,41);stroke-width:16.67px;"/>
                </g>
                <g id="Track-2.1" serif:id="Track 2.1" transform="matrix(1,0,0,1,-2608.33,0)">
                    <path d="M4783.33,2175C4453.91,2096.89 4162.58,2000.97 3904.73,1881.59" style="fill:none;stroke:rgb(238,19,25);stroke-width:16.67px;"/>
                </g>
                <g id="Track-3.1" serif:id="Track 3.1" transform="matrix(1,0,0,1,-5200,-7800)">
                    <path d="M7374.98,9975.02C7156.73,9473.09 6446.98,9047.52 5909.9,8632.62" style="fill:none;stroke:rgb(229,198,30);stroke-width:16.67px;"/>
                </g>
            </g>
            <g transform="matrix(1,0,0,1,0.0442864,-0.0457616)">
                <g transform="matrix(0.995093,0.0989481,-0.0989481,0.995093,5616,-3350.68)">
                    <path d="M4892.66,5066.43L4335.34,3854.92" style="fill:none;stroke:rgb(243,178,114);stroke-width:16.67px;"/>
                </g>
                <g transform="matrix(0.995093,0.0989481,-0.0989481,0.995093,5616,-3350.68)">
                    <path d="M4221.29,3368.74L4303,3590.34" style="fill:none;stroke:rgb(243,178,114);stroke-width:16.67px;"/>
                </g>
                <g transform="matrix(0.995093,0.0989481,-0.0989481,0.995093,5616,-3350.68)">
                    <path d="M4303,3590.34L4337.74,3339.66" style="fill:none;stroke:rgb(243,178,114);stroke-width:16.67px;"/>
                </g>
                <g transform="matrix(0.995093,0.0989481,-0.0989481,0.995093,5616,-3350.68)">
                    <path d="M4297.47,3179.57L4338.83,3339.55" style="fill:none;stroke:rgb(243,178,114);stroke-width:16.67px;"/>
                </g>
                <g transform="matrix(0.995093,0.0989481,-0.0989481,0.995093,5616,-3350.68)">
                    <path d="M4338.83,3339.55L4389.07,3223.49" style="fill:none;stroke:rgb(243,178,114);stroke-width:16.67px;"/>
                </g>
                <g transform="matrix(0.995093,0.0989481,-0.0989481,0.995093,5616,-3350.68)">
                    <path d="M4160.86,3087.43L4203.2,3188.94" style="fill:none;stroke:rgb(243,178,114);stroke-width:16.67px;"/>
                </g>
                <g transform="matrix(0.995093,0.0989481,-0.0989481,0.995093,5616,-3350.68)">
                    <path d="M4203.2,3188.94L4244.34,3063.32" style="fill:none;stroke:rgb(243,178,114);stroke-width:16.67px;"/>
                </g>
                <g transform="matrix(0.995093,0.0989481,-0.0989481,0.995093,5616,-3350.68)">
                    <path d="M4261.17,3111L4297.14,3179.6" style="fill:none;stroke:rgb(243,178,114);stroke-width:16.67px;"/>
                </g>
                <g transform="matrix(0.995093,0.0989481,-0.0989481,0.995093,5616,-3350.68)">
                    <path d="M4297.14,3179.6L4332.09,3036.94" style="fill:none;stroke:rgb(243,178,114);stroke-width:16.67px;"/>
                </g>
                <g transform="matrix(0.995093,0.0989481,-0.0989481,0.995093,5616,-3350.68)">
                    <path d="M4365.44,3068.43L4389.64,3223.43" style="fill:none;stroke:rgb(243,178,114);stroke-width:16.67px;"/>
                </g>
                <g transform="matrix(0.995093,0.0989481,-0.0989481,0.995093,5616,-3350.68)">
                    <path d="M4389.64,3223.43L4439.21,3095.88" style="fill:none;stroke:rgb(243,178,114);stroke-width:16.67px;"/>
                </g>
                <g transform="matrix(0.995093,0.0989481,-0.0989481,0.995093,5616,-3350.68)">
                    <path d="M3738.38,3125.34L3863.36,3255.5" style="fill:none;stroke:rgb(243,178,114);stroke-width:16.67px;"/>
                </g>
                <g transform="matrix(0.995093,0.0989481,-0.0989481,0.995093,5616,-3350.68)">
                    <path d="M3863.36,3255.5L3813.05,3088.55" style="fill:none;stroke:rgb(243,178,114);stroke-width:16.67px;"/>
                </g>
                <g transform="matrix(0.995093,0.0989481,-0.0989481,0.995093,5616,-3350.68)">
                    <path d="M3573.05,3112.41L3753.93,3281.76" style="fill:none;stroke:rgb(243,178,114);stroke-width:16.67px;"/>
                </g>
                <g transform="matrix(0.995093,0.0989481,-0.0989481,0.995093,5616,-3350.68)">
                    <path d="M3753.93,3281.76L3688.13,3126.86" style="fill:none;stroke:rgb(243,178,114);stroke-width:16.67px;"/>
                </g>
                <g transform="matrix(0.995093,0.0989481,-0.0989481,0.995093,5616,-3350.68)">
                    <path d="M4112.83,3252.89L4221.29,3368.74" style="fill:none;stroke:rgb(243,178,114);stroke-width:16.67px;"/>
                </g>
                <g transform="matrix(0.995093,0.0989481,-0.0989481,0.995093,5616,-3350.68)">
                    <path d="M4221.29,3368.74L4203.41,3188.92" style="fill:none;stroke:rgb(243,178,114);stroke-width:16.67px;"/>
                </g>
                <g transform="matrix(0.995093,0.0989481,-0.0989481,0.995093,5616,-3350.68)">
                    <path d="M3925.77,3403.7L4159.67,3604.59" style="fill:none;stroke:rgb(243,178,114);stroke-width:16.67px;"/>
                </g>
                <g transform="matrix(0.995093,0.0989481,-0.0989481,0.995093,5616,-3350.68)">
                    <path d="M4159.67,3604.59L4113.94,3461.59" style="fill:none;stroke:rgb(243,178,114);stroke-width:16.67px;"/>
                </g>
                <g transform="matrix(0.995093,0.0989481,-0.0989481,0.995093,5616,-3350.68)">
                    <path d="M3972.44,3289.23L4113.94,3461.59" style="fill:none;stroke:rgb(243,178,114);stroke-width:16.67px;"/>
                </g>
                <g transform="matrix(0.995093,0.0989481,-0.0989481,0.995093,5616,-3350.68)">
                    <path d="M4113.94,3461.59L4060.73,3280.45" style="fill:none;stroke:rgb(243,178,114);stroke-width:16.67px;"/>
                </g>
                <g transform="matrix(0.995093,0.0989481,-0.0989481,0.995093,5616,-3350.68)">
                    <path d="M3753.93,3281.76L3925.77,3403.7" style="fill:none;stroke:rgb(243,178,114);stroke-width:16.67px;"/>
                </g>
                <g transform="matrix(0.995093,0.0989481,-0.0989481,0.995093,5616,-3350.68)">
                    <path d="M3925.77,3403.7L3863.36,3255.5" style="fill:none;stroke:rgb(243,178,114);stroke-width:16.67px;"/>
                </g>
                <g transform="matrix(0.995093,0.0989481,-0.0989481,0.995093,5616,-3350.68)">
                    <path d="M3966.43,3108.11L4060.73,3280.45" style="fill:none;stroke:rgb(243,178,114);stroke-width:16.67px;"/>
                </g>
                <g transform="matrix(0.995093,0.0989481,-0.0989481,0.995093,5616,-3350.68)">
                    <path d="M4060.73,3280.45L4017.75,3084.88" style="fill:none;stroke:rgb(243,178,114);stroke-width:16.67px;"/>
                </g>
                <g transform="matrix(0.995093,0.0989481,-0.0989481,0.995093,5616,-3350.68)">
                    <path d="M4035.5,3066.43L4112.83,3252.89" style="fill:none;stroke:rgb(243,178,114);stroke-width:16.67px;"/>
                </g>
                <g transform="matrix(0.995093,0.0989481,-0.0989481,0.995093,5616,-3350.68)">
                    <path d="M4112.83,3252.89L4120.65,3072.38" style="fill:none;stroke:rgb(243,178,114);stroke-width:16.67px;"/>
                </g>
                <g transform="matrix(0.995093,0.0989481,-0.0989481,0.995093,5616,-3350.68)">
                    <path d="M3865.62,3114.14L3972.44,3289.23" style="fill:none;stroke:rgb(243,178,114);stroke-width:16.67px;"/>
                </g>
                <g transform="matrix(0.995093,0.0989481,-0.0989481,0.995093,5616,-3350.68)">
                    <path d="M3972.44,3289.23L3933.46,3076.58" style="fill:none;stroke:rgb(243,178,114);stroke-width:16.67px;"/>
                </g>
                <g transform="matrix(0.995093,0.0989481,-0.0989481,0.995093,5616,-3350.68)">
                    <path d="M4159.67,3604.59L4335.34,3854.92" style="fill:none;stroke:rgb(243,178,114);stroke-width:16.67px;"/>
                </g>
                <g transform="matrix(0.995093,0.0989481,-0.0989481,0.995093,5616,-3350.68)">
                    <path d="M4335.34,3854.92L4303,3590.34" style="fill:none;stroke:rgb(243,178,114);stroke-width:16.67px;"/>
                </g>
            </g>
            <g id="Text" transform="matrix(1,0,0,1,7735.33,0)">
                <g>
                    <g transform="matrix(0.9,0,-0.140541,1,-889.729,2020.76)">
                        <path d="M1378.59,-395.765L1789.42,-395.765L1789.42,-305.765L1482.76,-305.765L1482.76,-149.931L1751.92,-149.931L1751.92,-64.931L1482.76,-64.931L1482.76,199.235L1378.59,199.235L1378.59,-395.765Z" style="fill:rgb(0,166,234);fill-rule:nonzero;"/>
                    </g>
                    <g transform="matrix(0.9,0,-0.140541,1,-777.479,1295.76)">
                        <path d="M1537.76,-395.765L1648.59,-395.765L1877.76,199.235L1766.09,199.235L1710.26,41.735L1472.76,41.735L1416.92,199.235L1309.42,199.235L1537.76,-395.765ZM1501.09,-37.431L1682.76,-37.431L1593.59,-293.265L1591.09,-293.265L1501.09,-37.431Z" style="fill:rgb(0,166,234);fill-rule:nonzero;"/>
                    </g>
                    <g transform="matrix(0.9,0,-0.140541,1,-589.729,565.765)">
                        <path d="M1378.59,-395.765L1625.26,-395.765C1670.81,-395.765 1710.26,-387.987 1743.59,-372.431C1776.92,-356.876 1804.14,-335.626 1825.26,-308.681C1846.37,-281.737 1862.06,-250.209 1872.34,-214.098C1882.62,-177.987 1887.76,-139.376 1887.76,-98.265C1887.76,-57.154 1882.62,-18.543 1872.34,17.569C1862.06,53.68 1846.37,85.207 1825.26,112.152C1804.14,139.096 1776.92,160.346 1743.59,175.902C1710.26,191.457 1670.81,199.235 1625.26,199.235L1378.59,199.235L1378.59,-395.765ZM1482.76,114.235L1585.26,114.235C1625.81,114.235 1659.01,108.819 1684.84,97.985C1710.67,87.152 1730.95,72.152 1745.67,52.985C1760.39,33.819 1770.39,11.319 1775.67,-14.515C1780.95,-40.348 1783.59,-68.265 1783.59,-98.265C1783.59,-128.265 1780.95,-156.181 1775.67,-182.015C1770.39,-207.848 1760.39,-230.348 1745.67,-249.515C1730.95,-268.681 1710.67,-283.681 1684.84,-294.515C1659.01,-305.348 1625.81,-310.765 1585.26,-310.765L1482.76,-310.765L1482.76,114.235Z" style="fill:rgb(0,166,234);fill-rule:nonzero;"/>
                    </g>
                </g>
                <g>
                    <g id="ACILITY" transform="matrix(1,0,0,1,-1259.25,2020.76)">
                        <g transform="matrix(0.9,0,-0.140541,1,204.001,0)">
                            <path d="M1831.2,8.835L1866.67,8.835L1940.01,199.235L1904.27,199.235L1886.4,148.835L1810.4,148.835L1792.54,199.235L1758.14,199.235L1831.2,8.835ZM1819.47,123.502L1877.61,123.502L1849.07,41.635L1848.27,41.635L1819.47,123.502Z" style="fill:rgb(0,76,104);fill-rule:nonzero;"/>
                        </g>
                        <g transform="matrix(0.9,0,-0.140541,1,204.001,0)">
                            <path d="M2086.67,69.369C2085.25,63.857 2083.29,58.791 2080.8,54.169C2078.32,49.546 2075.12,45.546 2071.2,42.169C2067.29,38.791 2062.72,36.169 2057.47,34.302C2052.23,32.435 2046.14,31.502 2039.21,31.502C2029.07,31.502 2020.32,33.546 2012.94,37.635C2005.56,41.724 1999.56,47.191 1994.94,54.035C1990.32,60.88 1986.89,68.657 1984.67,77.369C1982.45,86.08 1981.34,94.969 1981.34,104.035C1981.34,113.102 1982.45,121.991 1984.67,130.702C1986.89,139.413 1990.32,147.191 1994.94,154.035C1999.56,160.88 2005.56,166.346 2012.94,170.435C2020.32,174.524 2029.07,176.569 2039.21,176.569C2046.67,176.569 2053.25,175.28 2058.94,172.702C2064.63,170.124 2069.52,166.569 2073.61,162.035C2077.69,157.502 2080.89,152.213 2083.2,146.169C2085.52,140.124 2087.03,133.635 2087.74,126.702L2120.27,126.702C2119.56,138.08 2117.12,148.48 2112.94,157.902C2108.76,167.324 2103.12,175.457 2096.01,182.302C2088.89,189.146 2080.54,194.435 2070.94,198.169C2061.34,201.902 2050.76,203.769 2039.21,203.769C2024.98,203.769 2012.23,201.146 2000.94,195.902C1989.65,190.657 1980.09,183.502 1972.27,174.435C1964.45,165.369 1958.45,154.791 1954.27,142.702C1950.09,130.613 1948.01,117.724 1948.01,104.035C1948.01,90.524 1950.09,77.724 1954.27,65.635C1958.45,53.546 1964.45,42.969 1972.27,33.902C1980.09,24.835 1989.65,17.635 2000.94,12.302C2012.23,6.969 2024.98,4.302 2039.21,4.302C2049.87,4.302 2059.92,5.769 2069.34,8.702C2078.76,11.635 2087.07,15.902 2094.27,21.502C2101.47,27.102 2107.29,33.902 2111.74,41.902C2116.18,49.902 2118.94,59.057 2120.01,69.369L2086.67,69.369Z" style="fill:rgb(0,76,104);fill-rule:nonzero;"/>
                        </g>
                        <g transform="matrix(0.9,0,-0.140541,1,204.001,0)">
                            <rect x="2150.67" y="8.835" width="33.333" height="190.4" style="fill:rgb(0,76,104);fill-rule:nonzero;"/>
                        </g>
                        <g transform="matrix(0.9,0,-0.140541,1,204.001,0)">
                            <path d="M2224.8,8.835L2258.14,8.835L2258.14,170.435L2354.94,170.435L2354.94,199.235L2224.8,199.235L2224.8,8.835Z" style="fill:rgb(0,76,104);fill-rule:nonzero;"/>
                        </g>
                        <g transform="matrix(0.9,0,-0.140541,1,204.001,0)">
                            <rect x="2377.87" y="8.835" width="33.333" height="190.4" style="fill:rgb(0,76,104);fill-rule:nonzero;"/>
                        </g>
                        <g transform="matrix(0.9,0,-0.140541,1,204.001,0)">
                            <path d="M2433.87,8.835L2588.01,8.835L2588.01,37.635L2527.47,37.635L2527.47,199.235L2494.14,199.235L2494.14,37.635L2433.87,37.635L2433.87,8.835Z" style="fill:rgb(0,76,104);fill-rule:nonzero;"/>
                        </g>
                        <g transform="matrix(0.9,0,-0.140541,1,204.001,0)">
                            <path d="M2659.74,124.569L2588.27,8.835L2626.94,8.835L2677.34,94.169L2726.94,8.835L2764.27,8.835L2693.07,124.569L2693.07,199.235L2659.74,199.235L2659.74,124.569Z" style="fill:rgb(0,76,104);fill-rule:nonzero;"/>
                        </g>
                    </g>
                    <g id="SSEMBLY" transform="matrix(1,0,0,1,-927.005,1295.76)">
                        <g transform="matrix(0.9,0,-0.140541,1,209.551,0)">
                            <path d="M1857.64,135.769C1857.64,143.057 1858.88,149.28 1861.37,154.435C1863.86,159.591 1867.33,163.813 1871.77,167.102C1876.22,170.391 1881.33,172.791 1887.11,174.302C1892.88,175.813 1899.15,176.569 1905.9,176.569C1913.19,176.569 1919.42,175.724 1924.57,174.035C1929.73,172.346 1933.9,170.169 1937.11,167.502C1940.31,164.835 1942.62,161.769 1944.04,158.302C1945.46,154.835 1946.17,151.324 1946.17,147.769C1946.17,140.48 1944.53,135.102 1941.24,131.635C1937.95,128.169 1934.35,125.724 1930.44,124.302C1923.68,121.813 1915.82,119.457 1906.84,117.235C1897.86,115.013 1886.79,112.124 1873.64,108.569C1865.46,106.435 1858.66,103.635 1853.24,100.169C1847.82,96.702 1843.51,92.835 1840.31,88.569C1837.11,84.302 1834.84,79.769 1833.51,74.969C1832.17,70.169 1831.51,65.28 1831.51,60.302C1831.51,50.702 1833.51,42.391 1837.51,35.369C1841.51,28.346 1846.79,22.524 1853.37,17.902C1859.95,13.28 1867.42,9.857 1875.77,7.635C1884.13,5.413 1892.57,4.302 1901.11,4.302C1911.06,4.302 1920.44,5.591 1929.24,8.169C1938.04,10.746 1945.77,14.613 1952.44,19.769C1959.11,24.924 1964.39,31.28 1968.31,38.835C1972.22,46.391 1974.17,55.146 1974.17,65.102L1940.84,65.102C1939.95,52.835 1935.77,44.169 1928.31,39.102C1920.84,34.035 1911.33,31.502 1899.77,31.502C1895.86,31.502 1891.86,31.902 1887.77,32.702C1883.68,33.502 1879.95,34.835 1876.57,36.702C1873.19,38.569 1870.39,41.102 1868.17,44.302C1865.95,47.502 1864.84,51.502 1864.84,56.302C1864.84,63.057 1866.93,68.346 1871.11,72.169C1875.28,75.991 1880.75,78.88 1887.51,80.835C1888.22,81.013 1891.02,81.769 1895.9,83.102C1900.79,84.435 1906.26,85.902 1912.31,87.502C1918.35,89.102 1924.26,90.657 1930.04,92.169C1935.82,93.68 1939.95,94.791 1942.44,95.502C1948.66,97.457 1954.08,100.124 1958.7,103.502C1963.33,106.88 1967.19,110.746 1970.31,115.102C1973.42,119.457 1975.73,124.124 1977.24,129.102C1978.75,134.08 1979.51,139.057 1979.51,144.035C1979.51,154.702 1977.33,163.813 1972.97,171.369C1968.62,178.924 1962.88,185.102 1955.77,189.902C1948.66,194.702 1940.57,198.213 1931.51,200.435C1922.44,202.657 1913.19,203.769 1903.77,203.769C1892.93,203.769 1882.7,202.435 1873.11,199.769C1863.51,197.102 1855.15,193.013 1848.04,187.502C1840.93,181.991 1835.24,174.924 1830.97,166.302C1826.7,157.68 1824.48,147.502 1824.31,135.769L1857.64,135.769Z" style="fill:rgb(0,76,104);fill-rule:nonzero;"/>
                        </g>
                        <g transform="matrix(0.9,0,-0.140541,1,209.551,0)">
                            <path d="M2030.44,135.769C2030.44,143.057 2031.68,149.28 2034.17,154.435C2036.66,159.591 2040.13,163.813 2044.57,167.102C2049.02,170.391 2054.13,172.791 2059.91,174.302C2065.68,175.813 2071.95,176.569 2078.7,176.569C2085.99,176.569 2092.22,175.724 2097.37,174.035C2102.53,172.346 2106.7,170.169 2109.91,167.502C2113.11,164.835 2115.42,161.769 2116.84,158.302C2118.26,154.835 2118.97,151.324 2118.97,147.769C2118.97,140.48 2117.33,135.102 2114.04,131.635C2110.75,128.169 2107.15,125.724 2103.24,124.302C2096.48,121.813 2088.62,119.457 2079.64,117.235C2070.66,115.013 2059.59,112.124 2046.44,108.569C2038.26,106.435 2031.46,103.635 2026.04,100.169C2020.62,96.702 2016.31,92.835 2013.11,88.569C2009.9,84.302 2007.64,79.769 2006.31,74.969C2004.97,70.169 2004.31,65.28 2004.31,60.302C2004.31,50.702 2006.31,42.391 2010.31,35.369C2014.31,28.346 2019.59,22.524 2026.17,17.902C2032.75,13.28 2040.22,9.857 2048.57,7.635C2056.93,5.413 2065.37,4.302 2073.91,4.302C2083.86,4.302 2093.24,5.591 2102.04,8.169C2110.84,10.746 2118.57,14.613 2125.24,19.769C2131.91,24.924 2137.19,31.28 2141.11,38.835C2145.02,46.391 2146.97,55.146 2146.97,65.102L2113.64,65.102C2112.75,52.835 2108.57,44.169 2101.11,39.102C2093.64,34.035 2084.13,31.502 2072.57,31.502C2068.66,31.502 2064.66,31.902 2060.57,32.702C2056.48,33.502 2052.75,34.835 2049.37,36.702C2045.99,38.569 2043.19,41.102 2040.97,44.302C2038.75,47.502 2037.64,51.502 2037.64,56.302C2037.64,63.057 2039.73,68.346 2043.9,72.169C2048.08,75.991 2053.55,78.88 2060.3,80.835C2061.02,81.013 2063.82,81.769 2068.7,83.102C2073.59,84.435 2079.06,85.902 2085.11,87.502C2091.15,89.102 2097.06,90.657 2102.84,92.169C2108.62,93.68 2112.75,94.791 2115.24,95.502C2121.46,97.457 2126.88,100.124 2131.51,103.502C2136.13,106.88 2139.99,110.746 2143.11,115.102C2146.22,119.457 2148.53,124.124 2150.04,129.102C2151.55,134.08 2152.3,139.057 2152.3,144.035C2152.3,154.702 2150.13,163.813 2145.77,171.369C2141.42,178.924 2135.68,185.102 2128.57,189.902C2121.46,194.702 2113.37,198.213 2104.3,200.435C2095.24,202.657 2085.99,203.769 2076.57,203.769C2065.73,203.769 2055.51,202.435 2045.9,199.769C2036.31,197.102 2027.95,193.013 2020.84,187.502C2013.73,181.991 2008.04,174.924 2003.77,166.302C1999.51,157.68 1997.28,147.502 1997.11,135.769L2030.44,135.769Z" style="fill:rgb(0,76,104);fill-rule:nonzero;"/>
                        </g>
                        <g transform="matrix(0.9,0,-0.140541,1,209.551,0)">
                            <path d="M2181.37,8.835L2318.44,8.835L2318.44,37.635L2214.7,37.635L2214.7,87.502L2310.7,87.502L2310.7,114.702L2214.7,114.702L2214.7,170.435L2320.3,170.435L2320.3,199.235L2181.37,199.235L2181.37,8.835Z" style="fill:rgb(0,76,104);fill-rule:nonzero;"/>
                        </g>
                        <g transform="matrix(0.9,0,-0.140541,1,209.551,0)">
                            <path d="M2348.84,8.835L2395.77,8.835L2448.3,157.902L2448.84,157.902L2500.04,8.835L2546.44,8.835L2546.44,199.235L2514.7,199.235L2514.7,52.302L2514.17,52.302L2461.37,199.235L2433.91,199.235L2381.11,52.302L2380.57,52.302L2380.57,199.235L2348.84,199.235L2348.84,8.835Z" style="fill:rgb(0,76,104);fill-rule:nonzero;"/>
                        </g>
                        <g transform="matrix(0.9,0,-0.140541,1,209.551,0)">
                            <path d="M2619.77,88.569L2674.17,88.569C2682.17,88.569 2688.84,86.302 2694.17,81.769C2699.51,77.235 2702.17,70.702 2702.17,62.169C2702.17,52.569 2699.77,45.813 2694.97,41.902C2690.17,37.991 2683.24,36.035 2674.17,36.035L2619.77,36.035L2619.77,88.569ZM2586.44,8.835L2678.97,8.835C2696.04,8.835 2709.73,12.746 2720.04,20.569C2730.35,28.391 2735.51,40.213 2735.51,56.035C2735.51,65.635 2733.15,73.857 2728.44,80.702C2723.73,87.546 2717.02,92.835 2708.3,96.569L2708.3,97.102C2720.04,99.591 2728.93,105.146 2734.97,113.769C2741.02,122.391 2744.04,133.191 2744.04,146.169C2744.04,153.635 2742.7,160.613 2740.04,167.102C2737.37,173.591 2733.19,179.191 2727.51,183.902C2721.82,188.613 2714.53,192.346 2705.64,195.102C2696.75,197.857 2686.17,199.235 2673.91,199.235L2586.44,199.235L2586.44,8.835ZM2619.77,172.035L2678.7,172.035C2688.84,172.035 2696.7,169.413 2702.3,164.169C2707.91,158.924 2710.7,151.502 2710.7,141.902C2710.7,132.48 2707.91,125.235 2702.3,120.169C2696.7,115.102 2688.84,112.569 2678.7,112.569L2619.77,112.569L2619.77,172.035Z" style="fill:rgb(0,76,104);fill-rule:nonzero;"/>
                        </g>
                        <g transform="matrix(0.9,0,-0.140541,1,209.551,0)">
                            <path d="M2774.17,8.835L2807.51,8.835L2807.51,170.435L2904.3,170.435L2904.3,199.235L2774.17,199.235L2774.17,8.835Z" style="fill:rgb(0,76,104);fill-rule:nonzero;"/>
                        </g>
                        <g transform="matrix(0.9,0,-0.140541,1,209.551,0)">
                            <path d="M2947.24,124.569L2875.77,8.835L2914.44,8.835L2964.84,94.169L3014.44,8.835L3051.77,8.835L2980.57,124.569L2980.57,199.235L2947.24,199.235L2947.24,124.569Z" style="fill:rgb(0,76,104);fill-rule:nonzero;"/>
                        </g>
                    </g>
                    <g id="ETECTOR" transform="matrix(1,0,0,1,-749.255,565.765)">
                        <g transform="matrix(0.9,0,-0.140541,1,203.676,0)">
                            <path d="M1877.02,8.835L2014.09,8.835L2014.09,37.635L1910.36,37.635L1910.36,87.502L2006.36,87.502L2006.36,114.702L1910.36,114.702L1910.36,170.435L2015.96,170.435L2015.96,199.235L1877.02,199.235L1877.02,8.835Z" style="fill:rgb(0,76,104);fill-rule:nonzero;"/>
                        </g>
                        <g transform="matrix(0.9,0,-0.140541,1,203.676,0)">
                            <path d="M2026.89,8.835L2181.02,8.835L2181.02,37.635L2120.49,37.635L2120.49,199.235L2087.16,199.235L2087.16,37.635L2026.89,37.635L2026.89,8.835Z" style="fill:rgb(0,76,104);fill-rule:nonzero;"/>
                        </g>
                        <g transform="matrix(0.9,0,-0.140541,1,203.676,0)">
                            <path d="M2203.16,8.835L2340.22,8.835L2340.22,37.635L2236.49,37.635L2236.49,87.502L2332.49,87.502L2332.49,114.702L2236.49,114.702L2236.49,170.435L2342.09,170.435L2342.09,199.235L2203.16,199.235L2203.16,8.835Z" style="fill:rgb(0,76,104);fill-rule:nonzero;"/>
                        </g>
                        <g transform="matrix(0.9,0,-0.140541,1,203.676,0)">
                            <path d="M2499.69,69.369C2498.27,63.857 2496.31,58.791 2493.82,54.169C2491.33,49.546 2488.13,45.546 2484.22,42.169C2480.31,38.791 2475.73,36.169 2470.49,34.302C2465.24,32.435 2459.16,31.502 2452.22,31.502C2442.09,31.502 2433.33,33.546 2425.95,37.635C2418.58,41.724 2412.58,47.191 2407.95,54.035C2403.33,60.88 2399.91,68.657 2397.69,77.369C2395.47,86.08 2394.36,94.969 2394.36,104.035C2394.36,113.102 2395.47,121.991 2397.69,130.702C2399.91,139.413 2403.33,147.191 2407.95,154.035C2412.58,160.88 2418.58,166.346 2425.95,170.435C2433.33,174.524 2442.09,176.569 2452.22,176.569C2459.69,176.569 2466.27,175.28 2471.95,172.702C2477.64,170.124 2482.53,166.569 2486.62,162.035C2490.71,157.502 2493.91,152.213 2496.22,146.169C2498.53,140.124 2500.04,133.635 2500.76,126.702L2533.29,126.702C2532.58,138.08 2530.13,148.48 2525.95,157.902C2521.78,167.324 2516.13,175.457 2509.02,182.302C2501.91,189.146 2493.55,194.435 2483.95,198.169C2474.36,201.902 2463.78,203.769 2452.22,203.769C2438,203.769 2425.24,201.146 2413.95,195.902C2402.67,190.657 2393.11,183.502 2385.29,174.435C2377.47,165.369 2371.47,154.791 2367.29,142.702C2363.11,130.613 2361.02,117.724 2361.02,104.035C2361.02,90.524 2363.11,77.724 2367.29,65.635C2371.47,53.546 2377.47,42.969 2385.29,33.902C2393.11,24.835 2402.67,17.635 2413.95,12.302C2425.24,6.969 2438,4.302 2452.22,4.302C2462.89,4.302 2472.93,5.769 2482.36,8.702C2491.78,11.635 2500.09,15.902 2507.29,21.502C2514.49,27.102 2520.31,33.902 2524.76,41.902C2529.2,49.902 2531.95,59.057 2533.02,69.369L2499.69,69.369Z" style="fill:rgb(0,76,104);fill-rule:nonzero;"/>
                        </g>
                        <g transform="matrix(0.9,0,-0.140541,1,203.676,0)">
                            <path d="M2545.55,8.835L2699.69,8.835L2699.69,37.635L2639.16,37.635L2639.16,199.235L2605.82,199.235L2605.82,37.635L2545.55,37.635L2545.55,8.835Z" style="fill:rgb(0,76,104);fill-rule:nonzero;"/>
                        </g>
                        <g transform="matrix(0.9,0,-0.140541,1,203.676,0)">
                            <path d="M2802.89,31.502C2792.76,31.502 2784,33.546 2776.62,37.635C2769.24,41.724 2763.24,47.191 2758.62,54.035C2754,60.88 2750.58,68.657 2748.36,77.369C2746.13,86.08 2745.02,94.969 2745.02,104.035C2745.02,113.102 2746.13,121.991 2748.36,130.702C2750.58,139.413 2754,147.191 2758.62,154.035C2763.24,160.88 2769.24,166.346 2776.62,170.435C2784,174.524 2792.76,176.569 2802.89,176.569C2813.02,176.569 2821.78,174.524 2829.16,170.435C2836.53,166.346 2842.53,160.88 2847.16,154.035C2851.78,147.191 2855.2,139.413 2857.42,130.702C2859.64,121.991 2860.76,113.102 2860.76,104.035C2860.76,94.969 2859.64,86.08 2857.42,77.369C2855.2,68.657 2851.78,60.88 2847.16,54.035C2842.53,47.191 2836.53,41.724 2829.16,37.635C2821.78,33.546 2813.02,31.502 2802.89,31.502ZM2802.89,4.302C2817.11,4.302 2829.87,6.969 2841.16,12.302C2852.44,17.635 2862,24.835 2869.82,33.902C2877.64,42.969 2883.64,53.546 2887.82,65.635C2892,77.724 2894.09,90.524 2894.09,104.035C2894.09,117.724 2892,130.613 2887.82,142.702C2883.64,154.791 2877.64,165.369 2869.82,174.435C2862,183.502 2852.44,190.657 2841.16,195.902C2829.87,201.146 2817.11,203.769 2802.89,203.769C2788.67,203.769 2775.91,201.146 2764.62,195.902C2753.33,190.657 2743.78,183.502 2735.95,174.435C2728.13,165.369 2722.13,154.791 2717.95,142.702C2713.78,130.613 2711.69,117.724 2711.69,104.035C2711.69,90.524 2713.78,77.724 2717.95,65.635C2722.13,53.546 2728.13,42.969 2735.95,33.902C2743.78,24.835 2753.33,17.635 2764.62,12.302C2775.91,6.969 2788.67,4.302 2802.89,4.302Z" style="fill:rgb(0,76,104);fill-rule:nonzero;"/>
                        </g>
                        <g transform="matrix(0.9,0,-0.140541,1,203.676,0)">
                            <path d="M2924.49,8.835L3015.42,8.835C3036.4,8.835 3052.13,13.369 3062.62,22.435C3073.11,31.502 3078.36,44.124 3078.36,60.302C3078.36,69.369 3077.02,76.88 3074.36,82.835C3071.69,88.791 3068.58,93.591 3065.02,97.235C3061.47,100.88 3057.95,103.502 3054.49,105.102C3051.02,106.702 3048.49,107.769 3046.89,108.302L3046.89,108.835C3049.73,109.191 3052.8,110.08 3056.09,111.502C3059.38,112.924 3062.44,115.191 3065.29,118.302C3068.13,121.413 3070.49,125.457 3072.36,130.435C3074.22,135.413 3075.16,141.635 3075.16,149.102C3075.16,160.302 3076,170.48 3077.69,179.635C3079.38,188.791 3082,195.324 3085.56,199.235L3049.82,199.235C3047.33,195.146 3045.87,190.613 3045.42,185.635C3044.98,180.657 3044.76,175.857 3044.76,171.235C3044.76,162.524 3044.22,155.013 3043.16,148.702C3042.09,142.391 3040.13,137.146 3037.29,132.969C3034.44,128.791 3030.58,125.724 3025.69,123.769C3020.8,121.813 3014.53,120.835 3006.89,120.835L2957.82,120.835L2957.82,199.235L2924.49,199.235L2924.49,8.835ZM2957.82,95.502L3012.49,95.502C3023.16,95.502 3031.24,92.969 3036.76,87.902C3042.27,82.835 3045.02,75.235 3045.02,65.102C3045.02,59.057 3044.13,54.124 3042.36,50.302C3040.58,46.48 3038.13,43.502 3035.02,41.369C3031.91,39.235 3028.36,37.813 3024.36,37.102C3020.36,36.391 3016.22,36.035 3011.95,36.035L2957.82,36.035L2957.82,95.502Z" style="fill:rgb(0,76,104);fill-rule:nonzero;"/>
                        </g>
                    </g>
                </g>
            </g>
            <g id="Tracks-2" serif:id="Tracks 2" transform="matrix(1,0,0,1,5200,0)">
                <g>
                    <path id="Track-1.2" serif:id="Track 1.2" d="M3811.04,1720.81C3372.1,1698.91 2916.67,1816.43 2708.33,2039.74" style="fill:none;stroke:rgb(23,122,41);stroke-width:16.67px;"/>
                    <path id="Track-2.2" serif:id="Track 2.2" d="M3904.73,1881.59C3380.62,1638.93 2994.78,1299.38 2708.33,815.606" style="fill:none;stroke:rgb(238,19,25);stroke-width:16.67px;"/>
                    <g id="Track-3.2" serif:id="Track 3.2" transform="matrix(1,0,0,1,-2591.67,-7800)">
                        <path d="M5909.9,8632.62C5624.86,8412.42 5388.47,8195.22 5300,7971.2" style="fill:none;stroke:rgb(229,198,30);stroke-width:16.67px;"/>
                    </g>
                </g>
            </g>
            <g transform="matrix(1,0,0,1,0.0278529,-0.0457616)">
                <g transform="matrix(0.995093,0.0989481,-0.0989481,0.995093,5616,-3350.68)">
                    <path d="M4338.83,3339.55L4389.07,3223.49" style="fill:none;stroke:rgb(243,178,113);stroke-width:16.67px;"/>
                </g>
                <g transform="matrix(0.995093,0.0989481,-0.0989481,0.995093,5616,-3350.68)">
                    <path d="M4261.17,3111L4297.14,3179.6" style="fill:none;stroke:rgb(243,178,113);stroke-width:16.67px;"/>
                </g>
                <g transform="matrix(0.995093,0.0989481,-0.0989481,0.995093,5616,-3350.68)">
                    <path d="M4297.14,3179.6L4332.09,3036.94" style="fill:none;stroke:rgb(243,178,113);stroke-width:16.67px;"/>
                </g>
                <g transform="matrix(0.995093,0.0989481,-0.0989481,0.995093,5616,-3350.68)">
                    <path d="M4365.44,3068.43L4389.64,3223.43" style="fill:none;stroke:rgb(243,178,113);stroke-width:16.67px;"/>
                </g>
                <g transform="matrix(0.995093,0.0989481,-0.0989481,0.995093,5616,-3350.68)">
                    <path d="M4389.64,3223.43L4439.21,3095.88" style="fill:none;stroke:rgb(243,178,113);stroke-width:16.67px;"/>
                </g>
                <g transform="matrix(0.995093,0.0989481,-0.0989481,0.995093,5616,-3350.68)">
                    <path d="M3863.36,3255.5L3813.05,3088.55" style="fill:none;stroke:rgb(243,178,113);stroke-width:16.67px;"/>
                </g>
                <g transform="matrix(0.995093,0.0989481,-0.0989481,0.995093,5616,-3350.68)">
                    <path d="M3753.93,3281.76L3688.13,3126.86" style="fill:none;stroke:rgb(243,178,113);stroke-width:16.67px;"/>
                </g>
                <g transform="matrix(0.995093,0.0989481,-0.0989481,0.995093,5616,-3350.68)">
                    <path d="M4112.83,3252.89L4221.29,3368.74" style="fill:none;stroke:rgb(243,178,113);stroke-width:16.67px;"/>
                </g>
                <g transform="matrix(0.995093,0.0989481,-0.0989481,0.995093,5616,-3350.68)">
                    <path d="M3925.77,3403.7L4159.67,3604.59" style="fill:none;stroke:rgb(243,178,113);stroke-width:16.67px;"/>
                </g>
                <g transform="matrix(0.995093,0.0989481,-0.0989481,0.995093,5616,-3350.68)">
                    <path d="M3972.44,3289.23L4113.94,3461.59" style="fill:none;stroke:rgb(243,178,113);stroke-width:16.67px;"/>
                </g>
                <g transform="matrix(0.995093,0.0989481,-0.0989481,0.995093,5616,-3350.68)">
                    <path d="M4113.94,3461.59L4060.73,3280.45" style="fill:none;stroke:rgb(243,178,113);stroke-width:16.67px;"/>
                </g>
                <g transform="matrix(0.995093,0.0989481,-0.0989481,0.995093,5616,-3350.68)">
                    <path d="M3753.93,3281.76L3925.77,3403.7" style="fill:none;stroke:rgb(243,178,113);stroke-width:16.67px;"/>
                </g>
                <g transform="matrix(0.995093,0.0989481,-0.0989481,0.995093,5616,-3350.68)">
                    <path d="M3925.77,3403.7L3863.36,3255.5" style="fill:none;stroke:rgb(243,178,113);stroke-width:16.67px;"/>
                </g>
                <g transform="matrix(0.995093,0.0989481,-0.0989481,0.995093,5616,-3350.68)">
                    <path d="M4035.5,3066.43L4112.83,3252.89" style="fill:none;stroke:rgb(243,178,113);stroke-width:16.67px;"/>
                </g>
                <g transform="matrix(0.995093,0.0989481,-0.0989481,0.995093,5616,-3350.68)">
                    <path d="M4112.83,3252.89L4120.65,3072.38" style="fill:none;stroke:rgb(243,178,113);stroke-width:16.67px;"/>
                </g>
                <g transform="matrix(0.995093,0.0989481,-0.0989481,0.995093,5616,-3350.68)">
                    <path d="M3865.62,3114.14L3972.44,3289.23" style="fill:none;stroke:rgb(243,178,113);stroke-width:16.67px;"/>
                </g>
                <g transform="matrix(0.995093,0.0989481,-0.0989481,0.995093,5616,-3350.68)">
                    <path d="M3972.44,3289.23L3933.46,3076.58" style="fill:none;stroke:rgb(243,178,113);stroke-width:16.67px;"/>
                </g>
            </g>
            <g transform="matrix(1.88855,0,0,2.00535,974.697,-2062.19)">
                <ellipse cx="4770.12" cy="2112.95" rx="39.713" ry="37.4" style="fill:rgb(242,142,0);"/>
            </g>
        </g>
    </g>
</svg>
